# xmcd
#
# Track frame offsets:
#	150
#	16448
#	37257
#	52507
#	69305
#	85581
#	94549
#	113333
#	126855
#	144286
#	158366
#	174107
#
# Disc length: 2463 seconds
#
# Revision: 2
# Processed by: cddbd v1.5.2PL0 Copyright (c) Steve Scherf et al.
# Submitted via: audiograbber 1.83.01
#
DISCID=7c099d0c
DTITLE=Ernst Molden - Foan
DYEAR=2009
DGENRE=Country
TTITLE0=lindschi
TTITLE1=willi
TTITLE2=i steh ibahaupt ned mea auf di
TTITLE3=i siech wos finstas
TTITLE4=summazeit
TTITLE5=wossaproblem
TTITLE6=numma zum waanan
TTITLE7=foan
TTITLE8=i sauf
TTITLE9=vü föd ned
TTITLE10=georgia lee
TTITLE11=wohnan duast bei mir
EXTD=2008 Doppel-CD
EXTT0=
EXTT1=
EXTT2=
EXTT3=
EXTT4=
EXTT5=
EXTT6=
EXTT7=
EXTT8=
EXTT9=
EXTT10=
EXTT11=
PLAYORDER=
